<mxfile host="app.diagrams.net" agent="Mozilla/5.0 (Windows NT 10.0; Win64; x64) AppleWebKit/537.36 (KHTML, like Gecko) Chrome/129.0.0.0 Safari/537.36" version="24.7.17">
  <diagram name="Page-1" id="87NjRFR4-s-maRx1c8Dx">
    <mxGraphModel dx="2293" dy="1291" grid="1" gridSize="10" guides="1" tooltips="1" connect="1" arrows="1" fold="1" page="1" pageScale="1" pageWidth="827" pageHeight="1169" math="0" shadow="0">
      <root>
        <mxCell id="0" />
        <mxCell id="1" parent="0" />
        <mxCell id="Q3u1eresff3ciJrd7htt-2" value="&lt;font style=&quot;font-size: 16px;&quot;&gt;Serveur&lt;/font&gt;" style="shape=folder;fontStyle=1;tabWidth=110;tabHeight=30;tabPosition=left;html=1;boundedLbl=1;labelInHeader=1;container=1;collapsible=0;whiteSpace=wrap;fillColor=#f8cecc;strokeColor=#b85450;strokeWidth=2;" parent="1" vertex="1">
          <mxGeometry x="500" y="212.5" width="430" height="327.5" as="geometry" />
        </mxCell>
        <mxCell id="Q3u1eresff3ciJrd7htt-3" value="" style="html=1;strokeColor=none;resizeWidth=1;resizeHeight=1;fillColor=none;part=1;connectable=0;allowArrows=0;deletable=0;whiteSpace=wrap;" parent="Q3u1eresff3ciJrd7htt-2" vertex="1">
          <mxGeometry width="458.66666666666663" height="229.25000000000003" relative="1" as="geometry">
            <mxPoint y="30" as="offset" />
          </mxGeometry>
        </mxCell>
        <mxCell id="Q3u1eresff3ciJrd7htt-5" value="&lt;b&gt;&lt;font style=&quot;font-size: 17px;&quot;&gt;Livres&lt;/font&gt;&lt;/b&gt;" style="html=1;whiteSpace=wrap;fillColor=#fff2cc;strokeColor=#d6b656;" parent="Q3u1eresff3ciJrd7htt-2" vertex="1">
          <mxGeometry width="120" height="40" relative="1" as="geometry">
            <mxPoint x="261" y="71" as="offset" />
          </mxGeometry>
        </mxCell>
        <mxCell id="Q3u1eresff3ciJrd7htt-7" value="&lt;b&gt;&lt;font style=&quot;font-size: 17px;&quot;&gt;Services&lt;/font&gt;&lt;/b&gt;" style="html=1;whiteSpace=wrap;" parent="Q3u1eresff3ciJrd7htt-2" vertex="1">
          <mxGeometry x="35.833333333333336" y="159.55128205128204" width="134.73333333333332" height="109.16666666666667" as="geometry" />
        </mxCell>
        <mxCell id="Q3u1eresff3ciJrd7htt-8" value="" style="endArrow=classic;html=1;rounded=0;dashed=1;strokeWidth=2;entryX=0;entryY=0.5;entryDx=0;entryDy=0;exitX=0.5;exitY=0;exitDx=0;exitDy=0;" parent="Q3u1eresff3ciJrd7htt-2" source="Q3u1eresff3ciJrd7htt-7" target="Q3u1eresff3ciJrd7htt-5" edge="1">
          <mxGeometry width="50" height="50" relative="1" as="geometry">
            <mxPoint x="43" y="344.29487179487177" as="sourcePoint" />
            <mxPoint x="200.66666666666666" y="41.98717948717949" as="targetPoint" />
            <Array as="points">
              <mxPoint x="103" y="91.5" />
            </Array>
          </mxGeometry>
        </mxCell>
        <mxCell id="Q3u1eresff3ciJrd7htt-9" value="&lt;b&gt;&amp;lt;&amp;lt;import&amp;gt;&amp;gt;&lt;/b&gt;" style="text;html=1;align=center;verticalAlign=middle;resizable=0;points=[];autosize=1;strokeColor=none;fillColor=none;" parent="Q3u1eresff3ciJrd7htt-2" vertex="1">
          <mxGeometry x="130.00444444444443" y="63.49820512820513" width="90" height="30" as="geometry" />
        </mxCell>
        <mxCell id="Q3u1eresff3ciJrd7htt-14" value="" style="endArrow=classic;html=1;rounded=0;dashed=1;strokeWidth=2;entryX=0;entryY=0.5;entryDx=0;entryDy=0;exitX=0.5;exitY=0;exitDx=0;exitDy=0;" parent="Q3u1eresff3ciJrd7htt-2" target="Q3u1eresff3ciJrd7htt-12" edge="1">
          <mxGeometry width="50" height="50" relative="1" as="geometry">
            <mxPoint x="102.72222222222221" y="268.717948717948" as="sourcePoint" />
            <mxPoint x="250.83333333333331" y="317.42307692307617" as="targetPoint" />
            <Array as="points">
              <mxPoint x="102.72222222222221" y="298.10897435897436" />
              <mxPoint x="170" y="298.5" />
              <mxPoint x="210" y="298.5" />
            </Array>
          </mxGeometry>
        </mxCell>
        <mxCell id="Q3u1eresff3ciJrd7htt-12" value="&lt;b&gt;&lt;font style=&quot;font-size: 17px;&quot;&gt;Commandes&lt;/font&gt;&lt;/b&gt;" style="html=1;whiteSpace=wrap;fillColor=#fff2cc;strokeColor=#d6b656;" parent="Q3u1eresff3ciJrd7htt-2" vertex="1">
          <mxGeometry x="255.69" y="250" width="131.39" height="40" as="geometry" />
        </mxCell>
        <mxCell id="Q3u1eresff3ciJrd7htt-16" value="&lt;b&gt;&amp;lt;&amp;lt;import&amp;gt;&amp;gt;&lt;/b&gt;" style="text;html=1;align=center;verticalAlign=middle;resizable=0;points=[];autosize=1;strokeColor=none;fillColor=none;" parent="Q3u1eresff3ciJrd7htt-2" vertex="1">
          <mxGeometry x="119.44000000000005" y="271.47" width="90" height="30" as="geometry" />
        </mxCell>
        <mxCell id="e714bWELc2hKPF34TdcK-2" value="&lt;b&gt;&lt;font style=&quot;font-size: 17px;&quot;&gt;Paiement&lt;/font&gt;&lt;/b&gt;" style="html=1;whiteSpace=wrap;fillColor=#fff2cc;strokeColor=#d6b656;" vertex="1" parent="Q3u1eresff3ciJrd7htt-2">
          <mxGeometry x="261.38000000000005" y="167.5" width="120" height="40" as="geometry" />
        </mxCell>
        <mxCell id="e714bWELc2hKPF34TdcK-3" value="" style="endArrow=classic;html=1;rounded=0;dashed=1;strokeWidth=2;entryX=0;entryY=0.5;entryDx=0;entryDy=0;exitX=1;exitY=0.264;exitDx=0;exitDy=0;exitPerimeter=0;" edge="1" parent="Q3u1eresff3ciJrd7htt-2" source="Q3u1eresff3ciJrd7htt-7" target="e714bWELc2hKPF34TdcK-2">
          <mxGeometry width="50" height="50" relative="1" as="geometry">
            <mxPoint x="110.27999999999997" y="253.55" as="sourcePoint" />
            <mxPoint x="268.28" y="159.55" as="targetPoint" />
            <Array as="points" />
          </mxGeometry>
        </mxCell>
        <mxCell id="e714bWELc2hKPF34TdcK-4" value="&lt;b&gt;&amp;lt;&amp;lt;import&amp;gt;&amp;gt;&lt;/b&gt;" style="text;html=1;align=center;verticalAlign=middle;resizable=0;points=[];autosize=1;strokeColor=none;fillColor=none;rotation=0;" vertex="1" parent="Q3u1eresff3ciJrd7htt-2">
          <mxGeometry x="170.00444444444452" y="159.54820512820515" width="90" height="30" as="geometry" />
        </mxCell>
        <mxCell id="Q3u1eresff3ciJrd7htt-4" value="&lt;font style=&quot;font-size: 16px;&quot;&gt;Client&lt;/font&gt;" style="shape=folder;fontStyle=1;tabWidth=110;tabHeight=30;tabPosition=left;html=1;boundedLbl=1;labelInHeader=1;container=1;collapsible=0;recursiveResize=0;whiteSpace=wrap;fillColor=#dae8fc;strokeColor=#6c8ebf;strokeWidth=2;" parent="1" vertex="1">
          <mxGeometry x="150" y="302" width="230" height="160" as="geometry" />
        </mxCell>
        <mxCell id="Q3u1eresff3ciJrd7htt-6" value="&lt;b&gt;&lt;font style=&quot;font-size: 17px;&quot;&gt;Consommateur&lt;/font&gt;&lt;/b&gt;" style="html=1;whiteSpace=wrap;" parent="Q3u1eresff3ciJrd7htt-4" vertex="1">
          <mxGeometry x="40" y="72" width="160" height="65" as="geometry" />
        </mxCell>
        <mxCell id="Q3u1eresff3ciJrd7htt-10" value="" style="endArrow=classic;html=1;rounded=0;entryX=-0.001;entryY=0.597;entryDx=0;entryDy=0;entryPerimeter=0;exitX=1.003;exitY=0.662;exitDx=0;exitDy=0;exitPerimeter=0;dashed=1;" parent="1" source="Q3u1eresff3ciJrd7htt-4" target="Q3u1eresff3ciJrd7htt-2" edge="1">
          <mxGeometry width="50" height="50" relative="1" as="geometry">
            <mxPoint x="340" y="340" as="sourcePoint" />
            <mxPoint x="390" y="290" as="targetPoint" />
          </mxGeometry>
        </mxCell>
        <mxCell id="Q3u1eresff3ciJrd7htt-11" value="&lt;b&gt;&amp;lt;&amp;lt;use&amp;gt;&amp;gt;&lt;/b&gt;" style="text;html=1;align=center;verticalAlign=middle;resizable=0;points=[];autosize=1;strokeColor=none;fillColor=none;" parent="1" vertex="1">
          <mxGeometry x="400" y="380" width="70" height="30" as="geometry" />
        </mxCell>
      </root>
    </mxGraphModel>
  </diagram>
</mxfile>
